<?xml version="1.0" encoding="UTF-8"?>
<svg role="img" version="1.1" viewBox="0 0 24 24" xmlns="http://www.w3.org/2000/svg"><title>Minetest icon</title><path d="m10.209 22.926c-0.97227-0.5707-2.3047-1.3553-2.961-1.7436-0.65628-0.3883-2.481-1.4639-4.0548-2.3901l-2.8616-1.6841 6.819e-5 -3.4715 6.82e-5 -3.4715 1.6782-0.98869c0.92302-0.54378 1.7095-1.0116 1.7478-1.0396 0.057807-0.04227-0.084362-0.14074-0.83766-0.5802l-0.90728-0.52929 0.020232-4.5386 4.1846-2.4569 3.8357 2.3109 4.99e-4 1.0322c4.6e-4 0.94385 0.0068 1.0298 0.07393 1.0041 0.04038-0.015497 0.6465-0.36565 1.3469-0.77813 0.70043-0.41247 1.3088-0.74982 1.3518-0.74965 0.11916 4.547e-4 4.2256 2.4154 4.2807 2.5174 0.02646 0.049005 0.05246 0.31175 0.05778 0.58388 0.0053 0.27213 0.01839 0.5089 0.02905 0.52614 0.02301 0.037224 1.0116 0.6149 1.0523 0.6149 0.01543 0 0.02806-0.16736 0.02806-0.37191v-0.37191l0.51862-0.36267c0.28524-0.19947 0.5389-0.37045 0.56367-0.37995 0.02477-0.00951 0.26371 0.10938 0.53098 0.26418l0.48595 0.28147 0.0442 2.2253 3.2262 1.8863v6.7461l-2.4086 1.4174c-1.3247 0.77955-3.9101 2.3235-5.7452 3.431-1.8352 1.1075-3.3764 2.0342-3.425 2.0593-0.0748 0.03857-0.36014-0.11393-1.8562-0.99205zm4.7386-1.3207c1.5988-0.96344 3.1207-1.8814 3.382-2.0399l0.47509-0.2882v-2.2194l1.0998-0.66137 0.02718-1.1374 1.0828-0.66062v-0.55789l2.0992-1.2339 0.01244-0.54047c0.0068-0.29726-0.0031-0.53363-0.0221-0.52528-0.019 0.0084-0.50189 0.29463-1.0731 0.63617s-1.2921 0.76907-1.602 0.95008l-0.56348 0.32911v1.062l-1.0828 0.66829-0.02768 1.1867-3.3333 2.0108c-1.8333 1.106-3.3585 2.0163-3.3894 2.0231-0.0309 0.0067-0.76204-0.40149-1.6247-0.90715l-1.5686-0.91938-0.024696-1.1191-0.88128-0.51179 0.0010518-1.372 7.6224-4.3876 0.01325-0.24793c0.0084-0.15674-0.0044-0.24793-0.03464-0.24793-0.02634 0-1.6726 0.93615-3.6584 2.0803-2.3585 1.3589-3.6418 2.0744-3.7006 2.0631-0.049568-0.0095-1.6969-0.96661-3.6607-2.127-1.9638-1.1604-3.5992-2.1207-3.6341-2.1341-0.054914-0.02107-0.063568 0.38826-0.063568 3.0067v3.0311l1.127 0.66415 0.023142-3.3525 0.53395 0.32859c0.29367 0.18072 0.54203 0.32859 0.5519 0.32859 0.00988 0 0.017959-0.24031 0.017959-0.53401s0.016718-0.52738 0.037151-0.51928 0.74536 0.43237 1.6109 0.94281l1.5738 0.92808 0.013188 1.1207 0.013187 1.1207 1.0828 0.62958v1.119l0.9255 0.54775 0.012339 0.55464 0.012339 0.55465 1.7899 1.054c0.98442 0.57967 1.8142 1.0542 1.8439 1.0545 0.02973 2.65e-4 1.3622-0.78776 2.961-1.7512zm-7.1119-0.93127-0.013254-0.2523-0.90368-0.53396-0.0022972-1.1179-1.149-0.67426-0.0019158-1.1147-0.0019159-1.1147-1.0727-0.62977c-0.58997-0.34637-1.0857-0.62977-1.1016-0.62977-0.015903 0-0.034498 0.23915-0.041323 0.53145l-0.012409 0.53145-0.44194-0.27011c-0.24307-0.14856-0.47674-0.28898-0.51928-0.31204-0.072894-0.03951-0.07734 0.03665-0.07734 1.3249v1.3668l2.1545 1.2803c1.185 0.70414 2.3732 1.411 2.6406 1.5707 0.26737 0.15974 0.50204 0.29177 0.52149 0.29338 0.019443 0.0016 0.029387-0.11059 0.022098-0.24936zm7.3214-2.5159 3.1173-1.8843v-1.1666l1.0828-0.65875 0.02592-0.53398-1.7546-1.0301c-0.96506-0.56654-1.7783-1.0323-1.8071-1.035-0.02887-0.0027-1.6956 0.93969-3.7039 2.0943l-3.6514 2.0992-0.00137 0.42143-0.00137 0.42142 0.86179 0.4938 0.044194 1.1329 1.3037 0.76467c0.71705 0.42057 1.3179 0.76482 1.3353 0.76501 0.01734 1.77e-4 1.4343-0.8476 3.1488-1.884zm6.1175-0.366 1.8611-1.1234v-3.2958l-0.56348 0.33106c-0.30991 0.18208-0.67759 0.39501-0.81707 0.47318l-0.25359 0.14212-0.0038 0.57452-1.1019 0.66291-8.9e-5 0.55886-8.8e-5 0.55886-1.0607 0.64083v0.81484c0 0.45592 0.01727 0.80835 0.03922 0.80011 0.02157-0.0081 0.87673-0.52024 1.9003-1.1381zm-9.365-5.4121c1.8347-1.0574 3.3414-1.9393 3.3482-1.9597 0.0068-0.02041-0.72581-0.474-1.628-1.008-1.0405-0.61579-1.6572-1.0067-1.6862-1.0688-0.03426-0.073178-0.02969-0.12224 0.01809-0.1942 0.03516-0.052957 1.0348-0.66614 2.2213-1.3626 1.1866-0.6965 2.1574-1.2844 2.1575-1.3064 3.1e-5 -0.022013-0.79059-0.50256-1.7569-1.0679l-1.757-1.0279-0.20387 0.1191c-0.11213 0.065502-0.73089 0.43075-1.375 0.81167l-1.1711 0.69257-0.022097 1.1183-0.022098 1.1183-2.6296 1.5452-9.458e-4 1.1075-9.413e-4 1.1075-0.5589 0.33146c-0.3074 0.1823-0.57613 0.33831-0.59719 0.34669-0.021056 0.0084-0.2958-0.13789-0.61055-0.32504l-0.57227-0.34028-0.023596-2.2186-0.32756-0.19308c-0.18016-0.10619-0.36046-0.18447-0.40068-0.17396-0.10646 0.02784-3.1833 1.8475-3.1811 1.8814 0.00103 0.01569 1.5948 0.96743 3.5417 2.115l3.5398 2.0864 0.18168-0.106c0.099922-0.0583 1.6828-0.97119 3.5175-2.0286zm8.5745 0.33621c0.57121-0.33448 1.4012-0.82658 1.8444-1.0935l0.80588-0.48539 0.001326-0.58456-2.7179-1.5981-0.0442 2.1743-0.46404 0.27837c-0.25522 0.1531-0.48156 0.27928-0.50298 0.28039-0.02142 0.0011-0.28469-0.13855-0.58505-0.31035l-0.54611-0.31237-0.023142-3.3728-0.66291-0.38847c-0.3646-0.21366-0.69534-0.38069-0.73497-0.37118-0.09027 0.021662-3.2207 1.8537-3.2196 1.8842 4.47e-4 0.012293 0.51517 0.32645 1.1438 0.69812 0.62866 0.37167 1.1745 0.71059 1.213 0.75314 0.05393 0.0596 0.0729 0.19858 0.08255 0.60488l0.01253 0.52751 1.6352 0.9587c0.89935 0.52729 1.6551 0.96016 1.6794 0.96195 0.02431 0.0018 0.51155-0.27043 1.0828-0.60491zm-13.937-1.7889 0.32428-0.18782 5.436e-4 -0.80654c3.094e-4 -0.4436-0.010897-0.80654-0.024877-0.80654s-0.16196 0.081115-0.32884 0.18026l-0.30342 0.18026-0.30864-0.18026c-0.16975-0.099141-0.32009-0.18026-0.33408-0.18026-0.013989 0-0.025133 0.36294-0.024764 0.80654l6.717e-4 0.80654 0.31974 0.18702c0.17586 0.10286 0.32769 0.18738 0.33741 0.18782 0.00972 4.42e-4 0.16361-0.08372 0.34196-0.18702zm13.116 0.04593 0.24704-0.1419v-4.3804l-0.51595-0.28364-0.63396 0.44665 0.02296 4.165 0.28726 0.16724c0.15799 0.09198 0.30039 0.16763 0.31643 0.1681 0.01604 4.78e-4 0.14034-0.06299 0.27621-0.14103zm-11.767-3.0511 1.6725-0.98332 1.565e-4 -2.1511 1.564e-4 -2.1511-1.6568-1.001c-0.91123-0.55057-1.6857-0.99457-1.7211-0.98666-0.03535 0.007911-0.88014 0.49168-1.8773 1.075l-1.813 1.0607-0.00288 3.9428 1.8451 1.0863c1.0148 0.59745 1.8531 1.0875 1.8629 1.089 0.00978 0.00152 0.7704-0.43973 1.6903-0.98055zm7.0155-0.4514 1.7284-1.0149v-0.23111c0-0.20992 0.01216-0.23829 0.13258-0.30942 0.07292-0.043075 0.13258-0.095045 0.13258-0.11549 0-0.020444-0.08452 0.013358-0.18782 0.075115s-1.0473 0.61476-2.0978 1.2289c-1.0505 0.61413-1.9106 1.1304-1.9114 1.1472-0.0021 0.045659 0.36628 0.25881 0.42472 0.24578 0.02775-0.00619 0.82822-0.46795 1.7788-1.0261zm2.169-1.7455c0.03576-0.022613 0.05561-0.050513 0.04412-0.062001-0.01149-0.011487-0.05946 0.00732-0.1066 0.041791-0.09429 0.068943-0.04155 0.086001 0.06248 0.02021z" fill="#fff" stroke-width=".044194"/></svg>
